<?xml version="1.0" encoding="UTF-8" standalone="no"?>
<!-- Creator: CorelDRAW X7 -->

<svg
   xmlns:dc="http://purl.org/dc/elements/1.1/"
   xmlns:cc="http://creativecommons.org/ns#"
   xmlns:rdf="http://www.w3.org/1999/02/22-rdf-syntax-ns#"
   xmlns:svg="http://www.w3.org/2000/svg"
   xmlns="http://www.w3.org/2000/svg"
   xmlns:sodipodi="http://sodipodi.sourceforge.net/DTD/sodipodi-0.dtd"
   xmlns:inkscape="http://www.inkscape.org/namespaces/inkscape"
   xml:space="preserve"
   width="150mm"
   height="150mm"
   version="1.1"
   style="shape-rendering:geometricPrecision; text-rendering:geometricPrecision; image-rendering:optimizeQuality; fill-rule:evenodd; clip-rule:evenodd"
   viewBox="0 0 15000 15000"
   id="svg2"
   inkscape:version="0.48.5 r10040"
   sodipodi:docname="Logo - F├бbrica de Software.svg"
   inkscape:export-filename="/home/aluno/Área de Trabalho/Logo - F├бbrica de Software.png"
   inkscape:export-xdpi="328.82437"
   inkscape:export-ydpi="328.82437"><metadata
     id="metadata68"><rdf:RDF><cc:Work
         rdf:about=""><dc:format>image/svg+xml</dc:format><dc:type
           rdf:resource="http://purl.org/dc/dcmitype/StillImage" /></cc:Work></rdf:RDF></metadata><sodipodi:namedview
     pagecolor="#ffffff"
     bordercolor="#666666"
     borderopacity="1"
     objecttolerance="10"
     gridtolerance="10"
     guidetolerance="10"
     inkscape:pageopacity="0"
     inkscape:pageshadow="2"
     inkscape:window-width="1535"
     inkscape:window-height="876"
     id="namedview66"
     showgrid="false"
     inkscape:zoom="2.511811"
     inkscape:cx="266.27299"
     inkscape:cy="274.56627"
     inkscape:window-x="65"
     inkscape:window-y="24"
     inkscape:window-maximized="1"
     inkscape:current-layer="svg2" /><defs
     id="defs4"><style
       type="text/css"
       id="style6">
    .fil12 {fill:black}
    .fil9 {fill:#267A7A}
    .fil4 {fill:#289191}
    .fil11 {fill:#4D4DEB}
    .fil6 {fill:#7D7DF0}
    .fil5 {fill:#D94E4E}
    .fil8 {fill:#EB7221}
    .fil10 {fill:#F27777}
    .fil3 {fill:#F59A5D}
    .fil7 {fill:white}
    .fil2 {fill:black;fill-rule:nonzero}
    .fil1 {fill:#EB7221;fill-rule:nonzero}
    .fil0 {fill:url(#id1)}
   </style><clipPath
       id="id0"><path
         d="M2733 3791l9454 0 40 6351 -9453 0 -41 -6351z"
         id="path9" /></clipPath><radialGradient
       id="id1"
       gradientUnits="userSpaceOnUse"
       gradientTransform="matrix(1.14555,0,0,1.14555,-1092,-1091)"
       cx="7500"
       cy="7493.14"
       r="4634.54"
       fx="7500"
       fy="7493.14"><stop
         offset="0"
         style="stop-opacity:1; stop-color:#FEFEFE"
         id="stop12" /><stop
         offset="1"
         style="stop-opacity:1; stop-color:#D2D3D5"
         id="stop14" /></radialGradient></defs><path
     class="fil0"
     d="m 2946,7672 c -136,785 -163,1742 437,2129 600,387 1827,204 3026,137 1198,-68 2369,-19 3339,51 970,70 1739,162 2096,-256 356,-417 299,-1343 266,-2196 -33,-854 -42,-1635 -343,-2125 -301,-489 -893,-687 -1346,-174 -454,512 -769,1735 -1279,1817 -510,82 -1215,-976 -1723,-1241 -509,-266 -822,260 -1217,640 -395,380 -872,613 -1324,457 -453,-157 -880,-702 -1216,-669 -336,33 -581,645 -716,1430 z"
     id="path24"
     style="fill:#d3d4d6;fill-opacity:1;stroke:#d3d4d6;stroke-opacity:1"
     inkscape:connector-curvature="0" /><path
     class="fil2"
     d="m 4788,8182 -990,0 0,393 -30,0 1,-658 c 5,-66 28,-137 79,-182 47,-42 104,-61 166,-61 l 774,0 0,113 -774,0 c -59,0 -115,18 -159,58 -32,26 -51,78 -57,118 l 0,106 990,0 0,113 z m 1215,394 -31,0 0,-396 -964,0 0,396 -30,0 0,-845 c 0,-38 5,-57 15,-57 l 995,0 c 10,0 15,19 15,57 l 0,845 z m -31,-509 0,-280 -964,0 0,280 964,0 z m 1244,267 c 0,35 -9,76 -26,113 -18,38 -42,59 -68,78 -45,33 -95,50 -152,50 l -764,0 c -10,0 -15,-19 -15,-57 l 0,-407 0,-380 c 0,-38 5,-57 15,-57 l 759,0 c 60,0 109,19 156,58 62,47 83,132 83,206 0,65 -1,140 -28,200 31,58 40,131 40,196 z m -45,-378 c 0,-44 -23,-87 -57,-115 -41,-35 -96,-54 -150,-54 l -742,0 0,293 877,2 c 68,0 72,-75 72,-126 z m 9,348 c 0,-53 -18,-110 -81,-110 l -877,0 0,268 748,0 c 54,0 103,-15 146,-46 37,-26 64,-66 64,-112 z m 1264,272 -30,0 0,-213 c 0,-11 -40,-105 -49,-114 -38,-40 -84,-69 -142,-69 l -788,0 0,396 -30,0 0,-845 c 0,-38 5,-57 15,-57 l 773,0 c 62,0 110,19 157,59 62,53 83,135 83,213 0,70 -22,132 -77,178 l 18,17 c 44,51 70,129 70,196 l 0,239 z m -46,-640 c 0,-37 -28,-71 -55,-94 -42,-35 -96,-55 -150,-55 l -758,0 0,280 789,0 62,0 c 36,0 65,-18 87,-55 16,-28 25,-53 25,-76 z m 265,639 -30,0 0,-901 30,0 0,901 z m 1196,0 -751,0 c -56,0 -105,-19 -150,-51 -61,-54 -91,-128 -91,-209 l 0,-381 c 0,-78 29,-158 92,-206 48,-38 94,-54 155,-54 l 745,0 0,113 -745,0 c -62,0 -100,14 -149,51 -41,31 -67,86 -67,138 l 0,311 c 0,53 27,94 66,127 44,28 91,48 145,48 l 750,0 0,113 z m 1243,1 -30,0 0,-396 -964,0 0,396 -31,0 0,-845 c 0,-38 5,-57 16,-57 l 994,0 c 10,0 15,19 15,57 l 0,845 z m -30,-509 0,-280 -964,0 0,280 964,0 z"
     id="path28"
     inkscape:connector-curvature="0"
     style="fill:#000000;fill-rule:nonzero;stroke:#000000;stroke-opacity:1;fill-opacity:1" /><path
     class="fil2"
     d="m 4547,9080 0,95 c -1,8 -17,38 -33,45 -16,8 -34,12 -54,12 l -272,0 c -4,0 -6,-5 -6,-13 l 0,-187 c 0,-9 2,-13 6,-13 l 271,0 c 22,0 38,2 56,14 20,10 32,24 32,47 z m -10,83 0,-74 c 0,-15 -12,-24 -24,-30 -16,-11 -34,-14 -53,-14 l -267,0 0,160 267,0 c 27,0 72,-8 77,-42 z m 415,69 -280,0 c -36,0 -85,-18 -85,-62 l 0,-96 c 6,-42 51,-55 88,-55 l 277,0 0,26 -277,0 c -26,0 -71,8 -77,39 l 0,25 354,0 0,26 -354,0 0,33 c 0,8 7,16 22,24 16,8 35,13 52,13 l 280,0 0,27 z"
     id="path30"
     inkscape:connector-curvature="0"
     style="fill:#000000;fill-rule:nonzero;stroke:#000000;stroke-opacity:1;fill-opacity:1" /><ellipse
     class="fil3"
     cx="4918"
     cy="5231"
     rx="1186"
     ry="1144"
     id="ellipse32"
     sodipodi:cx="4918"
     sodipodi:cy="5231"
     sodipodi:rx="1186"
     sodipodi:ry="1144"
     style="fill:#f59a5d;stroke:#f59a5d;stroke-opacity:1" /><ellipse
     class="fil4"
     cx="7062"
     cy="4612"
     rx="746"
     ry="720"
     id="ellipse34"
     sodipodi:cx="7062"
     sodipodi:cy="4612"
     sodipodi:rx="746"
     sodipodi:ry="720"
     style="fill:#289191;stroke:#289191;stroke-opacity:1;fill-opacity:1" /><ellipse
     class="fil5"
     cx="8687"
     cy="4582"
     rx="552"
     ry="533"
     id="ellipse36"
     sodipodi:cx="8687"
     sodipodi:cy="4582"
     sodipodi:rx="552"
     sodipodi:ry="533"
     style="fill:#d94e4e;fill-opacity:1;stroke:#d94e4e;stroke-opacity:1" /><ellipse
     class="fil6"
     cx="9981"
     cy="4867"
     rx="384"
     ry="371"
     id="ellipse38"
     sodipodi:cx="9981"
     sodipodi:cy="4867"
     sodipodi:rx="384"
     sodipodi:ry="371"
     style="fill:#7d7df0;fill-opacity:1;stroke:#7d7df0;stroke-opacity:1" /><ellipse
     class="fil7"
     cx="4918"
     cy="5231"
     rx="221"
     ry="234"
     id="ellipse40"
     sodipodi:cx="4918"
     sodipodi:cy="5231"
     sodipodi:rx="221"
     sodipodi:ry="234"
     style="fill:#ffffff" /><ellipse
     class="fil7"
     cx="7062"
     cy="4612"
     rx="139"
     ry="147"
     id="ellipse42"
     sodipodi:cx="7062"
     sodipodi:cy="4612"
     sodipodi:rx="139"
     sodipodi:ry="147"
     style="fill:#ffffff" /><ellipse
     class="fil7"
     cx="8687"
     cy="4582"
     rx="103"
     ry="109"
     id="ellipse44"
     sodipodi:cx="8687"
     sodipodi:cy="4582"
     sodipodi:rx="103"
     sodipodi:ry="109"
     style="fill:#ffffff" /><ellipse
     class="fil7"
     cx="9981"
     cy="4867"
     rx="71"
     ry="76"
     id="ellipse46"
     sodipodi:cx="9981"
     sodipodi:cy="4867"
     sodipodi:rx="71"
     sodipodi:ry="76"
     style="fill:#ffffff" /><circle
     class="fil8"
     cx="4918"
     cy="5231"
     r="500"
     id="circle48"
     sodipodi:cx="4918"
     sodipodi:cy="5231"
     sodipodi:rx="500"
     sodipodi:ry="500"
     style="fill:#eb7221;stroke:#eb7221;stroke-opacity:1;fill-opacity:1" /><circle
     class="fil7"
     cx="4918"
     cy="5231"
     r="211"
     id="circle50"
     sodipodi:cx="4918"
     sodipodi:cy="5231"
     sodipodi:rx="211"
     sodipodi:ry="211"
     style="fill:#ffffff;stroke:#ffffff" /><circle
     class="fil9"
     cx="7062"
     cy="4612"
     r="314"
     id="circle52"
     sodipodi:cx="7062"
     sodipodi:cy="4612"
     sodipodi:rx="314"
     sodipodi:ry="314"
     style="fill:#267a7a;stroke:#267a7a;stroke-opacity:1" /><circle
     class="fil7"
     cx="7062"
     cy="4612"
     r="133"
     id="circle54"
     sodipodi:cx="7062"
     sodipodi:cy="4612"
     sodipodi:rx="133"
     sodipodi:ry="133"
     style="fill:#ffffff;stroke:#ffffff" /><circle
     class="fil10"
     cx="8687"
     cy="4582"
     r="233"
     id="circle56"
     sodipodi:cx="8687"
     sodipodi:cy="4582"
     sodipodi:rx="233"
     sodipodi:ry="233"
     style="fill:#f27777;stroke:#f27777;stroke-opacity:1" /><circle
     class="fil7"
     cx="8687"
     cy="4582"
     r="98"
     id="circle58"
     sodipodi:cx="8687"
     sodipodi:cy="4582"
     sodipodi:rx="98"
     sodipodi:ry="98"
     style="fill:#ffffff;stroke:#ffffff" /><circle
     class="fil11"
     cx="9981"
     cy="4867"
     r="162"
     id="circle60"
     sodipodi:cx="9981"
     sodipodi:cy="4867"
     sodipodi:rx="162"
     sodipodi:ry="162"
     style="fill:#4d4deb;fill-opacity:1;stroke:#4d4deb;stroke-opacity:1" /><circle
     class="fil7"
     cx="9981"
     cy="4867"
     r="68"
     id="circle62"
     sodipodi:cx="9981"
     sodipodi:cy="4867"
     sodipodi:rx="68"
     sodipodi:ry="68"
     style="fill:#ffffff;stroke:#ffffff" /><rect
     class="fil12"
     x="5359"
     y="7586"
     width="632.48401"
     height="14.0663"
     id="rect64"
     style="fill:#000000;stroke:#000000;stroke-opacity:0;fill-opacity:1" /><path
     class="fil1"
     d="m 5639,8935 -6,47 c -15,-7 -29,-13 -44,-17 -15,-3 -31,-5 -47,-5 -35,0 -62,7 -82,21 -19,14 -29,33 -29,58 0,31 33,65 99,103 9,5 16,9 21,12 46,27 76,49 89,68 14,19 21,42 21,69 0,42 -15,76 -45,102 -30,26 -69,39 -117,39 -20,0 -39,-2 -59,-5 -19,-4 -38,-10 -57,-18 l 6,-53 c 21,11 40,20 58,25 19,5 36,8 53,8 33,0 60,-8 80,-26 21,-17 31,-40 31,-68 0,-34 -32,-70 -97,-107 -10,-6 -17,-10 -22,-13 -45,-26 -74,-48 -88,-67 -14,-19 -21,-41 -21,-67 0,-39 14,-69 42,-91 28,-22 67,-33 118,-33 15,0 31,2 47,5 16,3 32,7 49,13 z m 620,19 c -52,0 -94,20 -125,60 -31,40 -47,93 -47,160 0,67 16,121 47,161 31,39 73,59 125,59 52,0 94,-20 125,-59 32,-40 47,-94 47,-161 0,-67 -15,-120 -47,-160 -31,-40 -73,-60 -125,-60 z m 0,-42 c 68,0 122,24 162,71 41,48 61,111 61,192 0,80 -20,144 -61,192 -40,47 -94,71 -162,71 -68,0 -122,-24 -162,-71 -41,-48 -61,-112 -61,-192 0,-80 20,-144 61,-191 40,-48 94,-72 162,-72 z m 627,9 236,0 0,40 -189,0 0,183 181,0 0,43 -181,0 0,242 -47,0 0,-508 z m 574,0 344,0 0,44 -149,0 0,464 -47,0 0,-464 -148,0 0,-44 z m 654,0 51,0 117,428 c 1,3 2,8 3,16 2,8 3,17 5,28 0,-6 0,-12 1,-19 2,-6 3,-14 6,-23 l 122,-430 62,0 120,430 c 1,4 3,10 4,18 1,7 3,15 4,24 1,-8 2,-15 3,-22 1,-6 2,-12 3,-17 l 122,-433 45,0 -146,508 -59,0 -122,-434 c -1,-5 -3,-10 -4,-17 -1,-6 -2,-14 -2,-22 -2,9 -3,17 -5,24 -1,8 -2,13 -2,15 l -124,434 -60,0 -144,-508 z m 1198,43 -113,284 223,0 -110,-284 z m -27,-43 57,0 202,508 -52,0 -53,-138 -259,0 -53,138 -48,0 206,-508 z m 667,43 0,188 58,0 c 38,0 68,-9 90,-26 21,-18 32,-43 32,-75 0,-29 -10,-51 -30,-66 -19,-14 -49,-21 -90,-21 l -60,0 z m -47,-43 112,0 c 55,0 96,11 124,33 28,22 42,54 42,97 0,31 -9,58 -29,79 -20,22 -49,37 -85,44 15,3 27,10 37,20 10,9 20,25 30,48 l 83,187 -52,0 -76,-177 c -9,-21 -20,-35 -34,-44 -13,-9 -32,-13 -56,-13 l -49,0 0,234 -47,0 0,-508 z m 690,0 247,0 0,40 -200,0 0,183 189,0 0,43 -189,0 0,198 205,0 0,44 -252,0 0,-508 z"
     id="path26"
     inkscape:connector-curvature="0"
     style="fill:#eb7221;fill-rule:nonzero;stroke:#eb7221;stroke-opacity:1" /></svg>